<svg xmlns="http://www.w3.org/2000/svg" width="760" height="430" viewBox="0 0 760 430" font-family="Segoe UI, Arial, sans-serif">
  <defs>
    <marker id="arrow3" markerWidth="10" markerHeight="10" refX="8" refY="3" orient="auto" markerUnits="strokeWidth">
      <path d="M0,0 L8,3 L0,6 Z" fill="#555"/>
    </marker>
  </defs>
  <rect x="0" y="0" width="760" height="430" fill="#ffffff"/>

  <!-- OWUI -->
  <rect x="30" y="180" width="130" height="56" rx="8" fill="#d7f0db" stroke="#34a853" stroke-width="1.5"/>
  <text x="95" y="214" text-anchor="middle" font-size="15" fill="#1a1a1a" font-weight="bold">OWUI</text>

  <!-- rows -->
  <!-- HR -->
  <line x1="160" y1="208" x2="250" y2="40" stroke="#555" stroke-width="1.3" marker-end="url(#arrow3)"/>
  <rect x="250" y="20" width="160" height="40" rx="6" fill="#fce8e6" stroke="#ea4335" stroke-width="1.3"/>
  <text x="330" y="45" text-anchor="middle" font-size="12" fill="#1a1a1a">Agent HR</text>
  <line x1="410" y1="40" x2="450" y2="40" stroke="#555" stroke-width="1.3" marker-end="url(#arrow3)"/>
  <rect x="450" y="20" width="140" height="40" rx="6" fill="#e0f7fa" stroke="#00acc1" stroke-width="1.3"/>
  <text x="520" y="45" text-anchor="middle" font-size="12" fill="#1a1a1a">MCP HR</text>
  <line x1="590" y1="40" x2="628" y2="40" stroke="#555" stroke-width="1.3" marker-end="url(#arrow3)"/>
  <rect x="628" y="20" width="120" height="40" rx="6" fill="#f1f3f4" stroke="#5f6368" stroke-width="1.3"/>
  <text x="688" y="45" text-anchor="middle" font-size="11" fill="#1a1a1a">Personální s.</text>

  <!-- Bankeri -->
  <line x1="160" y1="212" x2="250" y2="100" stroke="#555" stroke-width="1.3" marker-end="url(#arrow3)"/>
  <rect x="250" y="80" width="160" height="40" rx="6" fill="#fce8e6" stroke="#ea4335" stroke-width="1.3"/>
  <text x="330" y="105" text-anchor="middle" font-size="12" fill="#1a1a1a">Agent Bankéři</text>
  <line x1="410" y1="100" x2="450" y2="100" stroke="#555" stroke-width="1.3" marker-end="url(#arrow3)"/>
  <rect x="450" y="80" width="140" height="40" rx="6" fill="#e0f7fa" stroke="#00acc1" stroke-width="1.3"/>
  <text x="520" y="105" text-anchor="middle" font-size="12" fill="#1a1a1a">MCP Bankéři</text>
  <line x1="590" y1="100" x2="628" y2="100" stroke="#555" stroke-width="1.3" marker-end="url(#arrow3)"/>
  <rect x="628" y="80" width="120" height="40" rx="6" fill="#f1f3f4" stroke="#5f6368" stroke-width="1.3"/>
  <text x="688" y="98" text-anchor="middle" font-size="11" fill="#1a1a1a">CRM</text>
  <text x="688" y="112" text-anchor="middle" font-size="10" fill="#666">Zůstatky účtů</text>

  <!-- Trading -->
  <line x1="160" y1="216" x2="250" y2="160" stroke="#555" stroke-width="1.3" marker-end="url(#arrow3)"/>
  <rect x="250" y="140" width="160" height="40" rx="6" fill="#fce8e6" stroke="#ea4335" stroke-width="1.3"/>
  <text x="330" y="165" text-anchor="middle" font-size="12" fill="#1a1a1a">Agent Trading</text>
  <line x1="410" y1="160" x2="450" y2="160" stroke="#555" stroke-width="1.3" marker-end="url(#arrow3)"/>
  <rect x="450" y="140" width="140" height="40" rx="6" fill="#e0f7fa" stroke="#00acc1" stroke-width="1.3"/>
  <text x="520" y="165" text-anchor="middle" font-size="12" fill="#1a1a1a">MCP Trading</text>
  <line x1="590" y1="160" x2="628" y2="160" stroke="#555" stroke-width="1.3" marker-end="url(#arrow3)"/>
  <rect x="628" y="140" width="120" height="40" rx="6" fill="#f1f3f4" stroke="#5f6368" stroke-width="1.3"/>
  <text x="688" y="165" text-anchor="middle" font-size="11" fill="#1a1a1a">Trading platf.</text>

  <!-- Provoz -->
  <line x1="160" y1="220" x2="250" y2="220" stroke="#555" stroke-width="1.3" marker-end="url(#arrow3)"/>
  <rect x="250" y="200" width="160" height="40" rx="6" fill="#fce8e6" stroke="#ea4335" stroke-width="1.3"/>
  <text x="330" y="225" text-anchor="middle" font-size="12" fill="#1a1a1a">Agent Provoz</text>
  <line x1="410" y1="220" x2="450" y2="220" stroke="#555" stroke-width="1.3" marker-end="url(#arrow3)"/>
  <rect x="450" y="200" width="140" height="40" rx="6" fill="#e0f7fa" stroke="#00acc1" stroke-width="1.3"/>
  <text x="520" y="225" text-anchor="middle" font-size="12" fill="#1a1a1a">MCP Provoz</text>
  <line x1="590" y1="220" x2="628" y2="220" stroke="#555" stroke-width="1.3" marker-end="url(#arrow3)"/>
  <rect x="628" y="200" width="120" height="40" rx="6" fill="#f1f3f4" stroke="#5f6368" stroke-width="1.3"/>
  <text x="688" y="225" text-anchor="middle" font-size="10" fill="#1a1a1a">Interní systémy</text>

  <!-- IT -->
  <line x1="160" y1="224" x2="250" y2="280" stroke="#555" stroke-width="1.3" marker-end="url(#arrow3)"/>
  <rect x="250" y="260" width="160" height="40" rx="6" fill="#fce8e6" stroke="#ea4335" stroke-width="1.3"/>
  <text x="330" y="285" text-anchor="middle" font-size="12" fill="#1a1a1a">Agent IT</text>
  <line x1="410" y1="280" x2="450" y2="280" stroke="#555" stroke-width="1.3" marker-end="url(#arrow3)"/>
  <rect x="450" y="260" width="140" height="40" rx="6" fill="#e0f7fa" stroke="#00acc1" stroke-width="1.3"/>
  <text x="520" y="285" text-anchor="middle" font-size="12" fill="#1a1a1a">MCP IT</text>
  <line x1="590" y1="280" x2="628" y2="280" stroke="#555" stroke-width="1.3" marker-end="url(#arrow3)"/>
  <rect x="628" y="260" width="120" height="40" rx="6" fill="#f1f3f4" stroke="#5f6368" stroke-width="1.3"/>
  <text x="688" y="285" text-anchor="middle" font-size="10" fill="#1a1a1a">ServiceDesk / CMDB</text>

  <!-- caption -->
  <text x="380" y="370" text-anchor="middle" font-size="11" fill="#999">Domény a jejich MCP servery (cílový stav). Každá doména má dedikovanou bránu a izolovanou sadu zdrojů.</text>
  <text x="380" y="388" text-anchor="middle" font-size="11" fill="#999">Seznam domén není finální a bude se průběžně rozrůstat.</text>
</svg>
